<?xml version="1.0" encoding="UTF-8"?>
<svg id="Layer_2" data-name="Layer 2" xmlns="http://www.w3.org/2000/svg" viewBox="0 0 758.17 193.31">
  <defs>
    <style>
      .cls-1 {
        fill: #fff;
      }
    </style>
  </defs>
  <g id="Layer_1-2" data-name="Layer 1">
    <path class="cls-1" d="m85.57,131.68c-5.49,4.49-13.59,3.68-18.07-1.82-4.49-5.5-3.68-13.6,1.81-18.08l88.98-72.66C142.9,15.58,116.34,0,86.12,0,38.57,0,0,38.56,0,86.13c0,7.88,1.07,15.49,3.05,22.74L86.68,40.58c5.5-4.49,13.6-3.67,18.09,1.83,4.47,5.5,3.66,13.59-1.83,18.08L13.98,133.14c15.37,23.54,41.94,39.12,72.14,39.12,47.57,0,86.14-38.56,86.14-86.13,0-7.88-1.07-15.5-3.06-22.74l-83.63,68.28Z"/>
    <path class="cls-1" d="m628.85,169.63c11.72,0,23.01-3.91,29.27-13.01v13.01h22.08v-33.37c0-7.88,4.97-14.97,14.5-15.88-.05.57-.09,1.16-.09,1.77,0,17.51,17.24,17.88,31,21.26,3.86.88,10.68,1.88,10.68,6.88s-6.05,6.88-10.29,6.88c-3.09,0-6.05-.75-8.11-2.25-2.19-1.62-3.6-4-3.6-7.25h-20.84c.64,18.13,16.85,23.26,32.68,23.26s32.03-5.75,32.03-23.13c0-5.38-3.47-14.88-16.98-17.51-10.03-2.12-24.7-3.25-24.7-9.38,0-4.5,5.79-4.87,9.39-4.87,2.7,0,5.15.5,6.95,1.62,1.8,1.13,2.83,2.88,2.83,5.63h20.2c-.77-16.75-15.84-20.94-30.4-21l.05-.05h-37.94c-12.35,0-22.97,7.72-27.33,18.57-4.87-12.28-15.61-20.5-31.9-20.5-19.68,0-36.02,14.43-36.02,34.56,0,7.1,1.55,13.23,4.36,18.31h-13.08c-4.76,0-7.85-1.16-7.85-6.43v-28.83h13.71v-14.39h-13.71v-18.76h-21.87v18.76h-28.82v37.43c0,8.88-3.86,11.97-10.81,11.97h-1.16c-6.95,0-10.81-3.09-10.81-11.97v-37.43h-21.87v16.38c-4.35-10.26-12.82-17.67-26.26-17.67h-14.9c-6.02,0-11.2,3.52-13.66,8.6-2.44-5.06-7.59-8.56-13.57-8.6-.07,0-.13,0-.19,0h-17.11s-.09,0-.13,0c-6.01.02-11.18,3.52-13.63,8.6-2.45-5.07-7.62-8.58-13.63-8.6-.05,0-.09,0-.14,0h-17.11c-14.55,0-21.23,6.39-23.61,17.11-5.55-11.46-17.03-19.04-31.59-19.04s-26.12,7.68-31.59,19.27c-4.4-12.86-17.24-19.27-31.43-19.27-21.48,0-34.99,15.18-34.99,36.4s14.92,34.22,34.99,34.22c14.54,0,26.48-6.92,31.39-19.24,5.46,11.59,16.94,19.24,31.63,19.24,13.67,0,24.62-6.64,30.5-16.91v15.62h21.87v-37.43c0-8.88,3.86-11.97,10.81-11.97h1.16c6.94,0,10.8,3.08,10.81,11.93v37.46h21.87v-37.46c.01-8.85,3.87-11.93,10.81-11.93h1.16c6.95,0,10.81,3.09,10.81,11.97v61.11h21.87v-29.59h.26c4.5,6.05,10.81,9.13,19.04,9.13,13.28,0,21.79-8.14,25.68-18.99,2.39,10.7,9.07,17.06,23.6,17.06h17.11c19.17,0,24.7-11.06,24.7-28.56v-24.46h6.95v28.18c0,18.14,4.76,23.54,23.41,23.54h51.56Zm-368.46-26.88h-16.18c-1.03,7.08-4.89,11.45-12.48,11.45-9.26,0-12.99-8.88-12.99-17.49,0-9.26,1.93-19.68,14.15-19.68,5.53,0,10.55,3.99,10.68,9.65h17.26c-.67,2.87-1.06,5.87-1.06,9.01,0,2.44.22,4.8.63,7.07Zm34.49,11.45c-10.16,0-13.25-10.04-13.25-18.53s3.09-18.65,13.25-18.65,13.38,10.16,13.38,18.65-3.22,18.53-13.38,18.53Zm154.13,1.93c-9.91,0-13.25-7.59-13.25-19.3,0-13.76,7.46-17.88,13.38-17.88,9.65,0,12.99,9.39,12.99,17.88,0,9.14-3.34,19.3-13.12,19.3Zm179.32-41.27c7.33,0,12.61,6.08,12.99,13.42h-27.14c1.29-7.98,6.43-13.42,14.15-13.42Zm29.78,33.17h-16.53c-2.06,4.81-7.2,7.22-12.48,7.22-9.26,0-14.54-5.95-14.92-14.94h43.93v7.72Z"/>
    <path class="cls-1" d="m282.33,16.98c-20.71,0-35.12,15.31-35.12,35.38,0,7.01,1.79,13.4,4.97,18.78h-14.9c-4.76,0-7.85-1.16-7.85-6.43v-27.62h13.68v-14.15h-13.68V2.73h-21.87v20.19h-10.69v14.15h10.69v26.98c0,18.14,4.76,23.54,23.41,23.54h51.57,0c20.59-.12,35.03-15.25,35.03-35.25s-14.54-35.38-35.25-35.38Zm0,53.9c-10.16,0-13.25-10.03-13.25-18.52s3.09-18.65,13.25-18.65,13.38,10.16,13.38,18.65-3.22,18.52-13.38,18.52ZM438.41,2.73v67.82c0,9.02,7.39,16.41,16.41,16.41h5.47V2.73h-21.88Zm-37.32,14.24c-7.59,0-15.31,1.29-21.23,4.63-5.35,3.14-9.2,8.09-10.18,15.47h20.92c1.6-4.01,5.12-5.96,10.22-5.96,4.5,0,10.55,1.93,10.55,6.95,0,4.12-2.06,5.4-5.79,6.17-15.18,3.09-38.85,1.41-38.85,23.16,0,1.32.12,2.55.3,3.73h-10.23c-4.76,0-7.85-1.16-7.85-6.43v-27.62h13.68v-14.15h-13.68V2.73h-21.87v20.19h-10.69v14.15h10.69v26.98c0,18.14,4.76,23.54,23.41,23.54h49.89,0s15.42,0,15.42,0c9.02,0,16.4-7.38,16.4-16.41v-31.84c0-18.91-15.31-22.38-31.13-22.38Zm-3.34,57.11c-4.89,0-9.13-2.19-9.13-7.59s4.12-7.33,9.01-8.49c4.76-1.29,10.42-1.67,13.51-3.6.51,13.76-2.96,19.68-13.38,19.68Z"/>
  </g>
</svg>